<svg width="13" height="14" viewBox="0 0 13 14" fill="none" xmlns="http://www.w3.org/2000/svg">
<path d="M4.97632 12.2391V10.4074C4.97631 9.94145 5.35614 9.56287 5.82675 9.55975H7.55058C8.02343 9.55975 8.40676 9.93923 8.40676 10.4074V12.2448C8.40665 12.6404 8.72556 12.9637 9.12502 12.9729H10.2742C11.4199 12.9729 12.3486 12.0535 12.3486 10.9193V5.70854C12.3425 5.26235 12.1309 4.84336 11.774 4.57081L7.84364 1.43637C7.15508 0.890596 6.17628 0.890596 5.48772 1.43637L1.57461 4.5765C1.21638 4.84795 1.00441 5.26763 1 5.71422V10.9193C1 12.0535 1.92872 12.9729 3.07435 12.9729H4.22358C4.63296 12.9729 4.96483 12.6444 4.96483 12.2391" stroke="#242424" stroke-linecap="round" stroke-linejoin="round"/>
</svg>
