<svg width="14" height="14" viewBox="0 0 14 14" fill="none" xmlns="http://www.w3.org/2000/svg">
<path fill-rule="evenodd" clip-rule="evenodd" d="M6.0502 0.5C7.6401 0.5 8.9336 1.7935 8.9336 3.3834V3.9892C8.9336 4.2583 8.7152 4.4767 8.4461 4.4767C8.177 4.4767 7.9586 4.2583 7.9586 3.9892V3.3834C7.9586 2.3304 7.10255 1.475 6.0502 1.475H2.88145C1.8304 1.475 0.975 2.3304 0.975 3.3834V10.6172C0.975 11.6696 1.8304 12.525 2.88145 12.525H6.05735C7.10515 12.525 7.9586 11.6722 7.9586 10.6244V10.0114C7.9586 9.74235 8.177 9.52395 8.4461 9.52395C8.7152 9.52395 8.9336 9.74235 8.9336 10.0114V10.6244C8.9336 12.2104 7.6427 13.5 6.05735 13.5H2.88145C1.29285 13.5 0 12.2071 0 10.6172V3.3834C0 1.7935 1.29285 0.5 2.88145 0.5H6.0502ZM11.3023 4.7601L13.2055 6.65485C13.2224 6.6717 13.2376 6.68922 13.2516 6.70776L13.2055 6.65485C13.2285 6.67755 13.249 6.70236 13.2667 6.72882C13.2746 6.74081 13.2821 6.7532 13.2891 6.76595C13.2948 6.7759 13.3 6.78629 13.3048 6.79685C13.3089 6.80618 13.3129 6.81552 13.3165 6.825C13.3214 6.83735 13.3257 6.85005 13.3295 6.86292C13.3323 6.87306 13.3349 6.88317 13.3372 6.8934C13.3401 6.90582 13.3424 6.91831 13.3442 6.93089C13.3452 6.93908 13.3462 6.94765 13.347 6.95629C13.3485 6.97112 13.3491 6.98553 13.3491 7L13.3458 7.0403L13.3445 7.06612C13.3443 7.06722 13.3442 7.06833 13.344 7.06943L13.3491 7C13.3491 7.03608 13.3451 7.07181 13.3374 7.10655C13.3349 7.11683 13.3323 7.12694 13.3294 7.13692C13.3257 7.14995 13.3214 7.16265 13.3166 7.17514C13.3129 7.18448 13.3089 7.19382 13.3047 7.203C13.3 7.21371 13.2948 7.2241 13.2892 7.2343C13.2821 7.2468 13.2746 7.25919 13.2665 7.27121C13.2619 7.27833 13.2569 7.28537 13.2517 7.29227C13.2363 7.31264 13.2194 7.33179 13.2011 7.34953L11.3023 9.24055C11.2074 9.33545 11.0826 9.3829 10.9584 9.3829C10.8336 9.3829 10.7082 9.33545 10.6133 9.23925C10.4235 9.04815 10.4241 8.74005 10.6146 8.55025L11.6805 7.4875H5.03477C4.76567 7.4875 4.54727 7.2691 4.54727 7C4.54727 6.7309 4.76567 6.5125 5.03477 6.5125H11.6818L10.6146 5.4504C10.4241 5.2606 10.4228 4.9525 10.6133 4.7614C10.8031 4.5703 11.1112 4.5703 11.3023 4.7601Z" fill="black"/>
</svg>
